<?xml version="1.0" encoding="UTF-8" standalone="no"?>
<svg width="100%" height="100%" viewBox="0 0 936 888" version="1.1" xmlns="http://www.w3.org/2000/svg" style="fill-rule:evenodd;clip-rule:evenodd;stroke-linecap:round;stroke-linejoin:round;stroke-miterlimit:1.5;">
    <g transform="matrix(2.08333,0,0,2.08333,-393.452,-393.085)">
        <g id="striche">
            <path d="M219.844,296.56L285.567,241.983" style="fill:none;stroke:#5ba3a3;stroke-width:10px;"/>
            <path d="M368.151,208.756L315.015,224.934" style="fill:none;stroke:#5ba3a3;stroke-width:10px;"/>
            <path d="M393.982,206.854L444.46,206.623" style="fill:none;stroke:#5ba3a3;stroke-width:10px;"/>
            <path d="M373.731,216.836L337.065,279.899" style="fill:none;stroke:#5ba3a3;stroke-width:10px;"/>
            <path d="M305.498,247.925L319.955,276.509" style="fill:none;stroke:#5ba3a3;stroke-width:10px;"/>
            <path d="M224.402,307.273L311.137,299.599" style="fill:none;stroke:#5ba3a3;stroke-width:10px;"/>
            <path d="M220.655,316.802L275.626,350.259" style="fill:none;stroke:#5ba3a3;stroke-width:10px;"/>
            <path d="M211.395,325.216L215.195,364.062" style="fill:none;stroke:#5ba3a3;stroke-width:10px;"/>
            <path d="M273.781,366.728L232.283,375.52" style="fill:none;stroke:#5ba3a3;stroke-width:10px;"/>
            <path d="M288.623,435.446L229.798,388.438" style="fill:none;stroke:#5ba3a3;stroke-width:10px;"/>
            <path d="M299.118,431.173L296.821,381.501" style="fill:none;stroke:#5ba3a3;stroke-width:10px;"/>
            <path d="M312.476,438.6L358.026,402.802" style="fill:none;stroke:#5ba3a3;stroke-width:10px;"/>
            <path d="M313.661,367.718L354.289,381.035" style="fill:none;stroke:#5ba3a3;stroke-width:10px;"/>
            <path d="M304.951,343.351L320.526,311.514" style="fill:none;stroke:#5ba3a3;stroke-width:10px;"/>
            <path d="M364.366,365.504L338.809,309.634" style="fill:none;stroke:#5ba3a3;stroke-width:10px;"/>
            <path d="M423.037,332.886L346.684,302.965" style="fill:none;stroke:#5ba3a3;stroke-width:10px;"/>
            <path d="M440.017,264.702L347.608,291.149" style="fill:none;stroke:#5ba3a3;stroke-width:10px;"/>
            <path d="M456.378,248.178L458.796,220.401" style="fill:none;stroke:#5ba3a3;stroke-width:10px;"/>
            <path d="M469.461,257.412L522.203,244.887" style="fill:none;stroke:#5ba3a3;stroke-width:10px;"/>
            <path d="M472.879,213.925L522.846,233.16" style="fill:none;stroke:#5ba3a3;stroke-width:10px;"/>
            <path d="M586.798,280.587L556.385,253.379" style="fill:none;stroke:#5ba3a3;stroke-width:10px;"/>
            <path d="M583.107,294.086L550.646,309.338" style="fill:none;stroke:#5ba3a3;stroke-width:10px;"/>
            <path d="M537.956,262.523L535.722,296.478" style="fill:none;stroke:#5ba3a3;stroke-width:10px;"/>
            <path d="M467.845,271.407L517.424,306.784" style="fill:none;stroke:#5ba3a3;stroke-width:10px;"/>
            <path d="M453.065,277.594L446.807,319.375" style="fill:none;stroke:#5ba3a3;stroke-width:10px;"/>
            <path d="M518.189,322.039L466.831,338.859" style="fill:none;stroke:#5ba3a3;stroke-width:10px;"/>
            <path d="M529.972,332.886L506.165,400.271" style="fill:none;stroke:#5ba3a3;stroke-width:10px;"/>
            <path d="M459.479,359.108L494.301,401.64" style="fill:none;stroke:#5ba3a3;stroke-width:10px;"/>
            <path d="M394.086,375.061L424.179,353.678" style="fill:none;stroke:#5ba3a3;stroke-width:10px;"/>
            <path d="M398.482,393.803L488.277,409.476" style="fill:none;stroke:#5ba3a3;stroke-width:10px;"/>
            <path d="M573.761,424.757L515.678,416.064" style="fill:none;stroke:#5ba3a3;stroke-width:10px;"/>
            <path d="M610.488,372.288L516.74,407.955" style="fill:none;stroke:#5ba3a3;stroke-width:10px;"/>
            <path d="M619.472,357.598L598.923,301.303" style="fill:none;stroke:#5ba3a3;stroke-width:10px;"/>
            <path d="M610.156,363.914L547.631,327.453" style="fill:none;stroke:#5ba3a3;stroke-width:10px;"/>
            <path d="M594.646,416.559L616.207,378.624" style="fill:none;stroke:#5ba3a3;stroke-width:10px;"/>
            <path d="M584.612,440.248L576.755,470.275" style="fill:none;stroke:#5ba3a3;stroke-width:10px;"/>
            <path d="M512.472,424.602L562.752,472.94" style="fill:none;stroke:#5ba3a3;stroke-width:10px;"/>
            <path d="M489.083,422.491L443.791,455.588" style="fill:none;stroke:#5ba3a3;stroke-width:10px;"/>
            <path d="M387.626,409.133L416.591,449.379" style="fill:none;stroke:#5ba3a3;stroke-width:10px;"/>
            <path d="M313.312,446.76L408.958,462.845" style="fill:none;stroke:#5ba3a3;stroke-width:10px;"/>
            <path d="M365.848,481.449L409.413,470.702" style="fill:none;stroke:#5ba3a3;stroke-width:10px;"/>
            <path d="M341.886,476.075L310.822,453.23" style="fill:none;stroke:#5ba3a3;stroke-width:10px;"/>
            <path d="M436.104,485.413L459.956,581.012" style="fill:none;stroke:#5ba3a3;stroke-width:10px;"/>
            <path d="M447.768,468.832L560.481,479.733" style="fill:none;stroke:#5ba3a3;stroke-width:10px;"/>
            <path d="M446.835,477.761L481.237,499.296" style="fill:none;stroke:#5ba3a3;stroke-width:10px;"/>
            <path d="M504.544,503.05L559.494,486.118" style="fill:none;stroke:#5ba3a3;stroke-width:10px;"/>
            <path d="M501.254,549.381L496.811,519.239" style="fill:none;stroke:#5ba3a3;stroke-width:10px;"/>
            <path d="M493.015,568.187L475.358,588.203" style="fill:none;stroke:#5ba3a3;stroke-width:10px;"/>
            <path d="M389.934,212.203L443.497,252.677" style="fill:none;stroke:#5ba3a3;stroke-width:10px;"/>
        </g>
        <g id="somas">
            <g transform="matrix(0.610793,0,0,0.610793,94.5399,184.561)"><ellipse cx="460.739" cy="334.883" rx="37.683" ry="37.34" style="fill:white;"/></g>
            <g transform="matrix(0.610793,0,0,0.610793,162.642,137.638)"><ellipse cx="460.739" cy="334.883" rx="37.683" ry="37.34" style="fill:white;"/></g>
            <g transform="matrix(0.480381,0,0,0.480381,319.549,83.2511)"><ellipse cx="460.739" cy="334.883" rx="37.683" ry="37.34" style="fill:white;"/></g>
            <g transform="matrix(0.316531,0,0,0.316531,448.808,183.483)"><ellipse cx="460.739" cy="334.883" rx="37.683" ry="37.34" style="fill:white;"/></g>
            <g transform="matrix(0.429607,0,0,0.429607,335.71,173.392)"><ellipse cx="460.739" cy="334.883" rx="37.683" ry="37.34" style="fill:white;"/></g>
            <g transform="matrix(0.277361,0,0,0.277361,494.594,275.419)"><ellipse cx="460.739" cy="334.883" rx="37.683" ry="37.34" style="fill:white;"/></g>
            <g transform="matrix(0.341095,0,0,0.341095,430.347,313.036)"><ellipse cx="460.739" cy="334.883" rx="37.683" ry="37.34" style="fill:white;"/></g>
            <g transform="matrix(0.37115,0,0,0.37115,330.689,289.113)"><ellipse cx="460.739" cy="334.883" rx="37.683" ry="37.34" style="fill:white;"/></g>
            <g transform="matrix(0.47958,0,0,0.47958,209.152,306.684)"><ellipse cx="460.739" cy="334.883" rx="37.683" ry="37.34" style="fill:white;"/></g>
            <g transform="matrix(0.27855,0,0,0.27855,224.521,389.864)"><ellipse cx="460.739" cy="334.883" rx="37.683" ry="37.34" style="fill:white;"/></g>
            <g transform="matrix(0.310029,0,0,0.310029,158.808,342.24)"><ellipse cx="460.739" cy="334.883" rx="37.683" ry="37.34" style="fill:white;"/></g>
            <g transform="matrix(0.467077,0,0,0.467077,79.8698,205.341)"><ellipse cx="460.739" cy="334.883" rx="37.683" ry="37.34" style="fill:white;"/></g>
            <g transform="matrix(0.442831,0,0,0.442831,124.447,147.692)"><ellipse cx="460.739" cy="334.883" rx="37.683" ry="37.34" style="fill:white;"/></g>
            <g transform="matrix(0.388082,0,0,0.388082,29.6768,177.963)"><ellipse cx="460.739" cy="334.883" rx="37.683" ry="37.34" style="fill:white;"/></g>
            <g transform="matrix(0.330301,0,0,0.330301,66.2146,268.307)"><ellipse cx="460.739" cy="334.883" rx="37.683" ry="37.34" style="fill:white;"/></g>
            <g transform="matrix(0.44835,0,0,0.44835,92.628,80.5432)"><ellipse cx="460.739" cy="334.883" rx="37.683" ry="37.34" style="fill:white;"/></g>
            <g transform="matrix(0.380386,0,0,0.380386,279.868,134.943)"><ellipse cx="460.739" cy="334.883" rx="37.683" ry="37.34" style="fill:white;"/></g>
            <g transform="matrix(0.337113,0,0,0.337113,303.475,94.92)"><ellipse cx="460.739" cy="334.883" rx="37.683" ry="37.34" style="fill:white;"/></g>
            <g transform="matrix(0.319178,0,0,0.319178,233.643,98.7116)"><ellipse cx="460.739" cy="334.883" rx="37.683" ry="37.34" style="fill:white;"/></g>
            <g transform="matrix(0.30998,0,0,0.30998,351.607,403.857)"><ellipse cx="460.739" cy="334.883" rx="37.683" ry="37.34" style="fill:white;"/></g>
            <g transform="matrix(0.283182,0,0,0.283182,442.456,388.115)"><ellipse cx="460.739" cy="334.883" rx="37.683" ry="37.34" style="fill:white;"/></g>
            <g transform="matrix(0.283167,0,0,0.283167,372.382,465.01)"><ellipse cx="460.739" cy="334.883" rx="37.683" ry="37.34" style="fill:white;"/></g>
            <g transform="matrix(0.326066,0,0,0.326066,315.066,488.102)"><ellipse cx="460.739" cy="334.883" rx="37.683" ry="37.34" style="fill:white;"/></g>
        </g>
        <g id="kreise">
            <g transform="matrix(0.610793,0,0,0.610793,94.5399,184.561)"><ellipse cx="460.739" cy="334.883" rx="37.683" ry="37.34" style="fill:none;stroke:#5ba3a3;stroke-width:16.37px;"/></g>
            <g transform="matrix(0.610793,0,0,0.610793,162.642,137.638)"><ellipse cx="460.739" cy="334.883" rx="37.683" ry="37.34" style="fill:none;stroke:#5ba3a3;stroke-width:16.37px;"/></g>
            <g transform="matrix(0.480381,0,0,0.480381,319.549,83.2511)"><ellipse cx="460.739" cy="334.883" rx="37.683" ry="37.34" style="fill:none;stroke:#5ba3a3;stroke-width:20.82px;"/></g>
            <g transform="matrix(0.316531,0,0,0.316531,448.808,183.483)"><ellipse cx="460.739" cy="334.883" rx="37.683" ry="37.34" style="fill:none;stroke:#5ba3a3;stroke-width:31.59px;"/></g>
            <g transform="matrix(0.429607,0,0,0.429607,335.71,173.392)"><ellipse cx="460.739" cy="334.883" rx="37.683" ry="37.34" style="fill:none;stroke:#5ba3a3;stroke-width:23.28px;"/></g>
            <g transform="matrix(0.277361,0,0,0.277361,494.594,275.419)"><ellipse cx="460.739" cy="334.883" rx="37.683" ry="37.34" style="fill:none;stroke:#5ba3a3;stroke-width:36.05px;"/></g>
            <g transform="matrix(0.341095,0,0,0.341095,430.347,313.036)"><ellipse cx="460.739" cy="334.883" rx="37.683" ry="37.34" style="fill:none;stroke:#5ba3a3;stroke-width:29.32px;"/></g>
            <g transform="matrix(0.37115,0,0,0.37115,330.689,289.113)"><ellipse cx="460.739" cy="334.883" rx="37.683" ry="37.34" style="fill:none;stroke:#5ba3a3;stroke-width:26.94px;"/></g>
            <g transform="matrix(0.47958,0,0,0.47958,209.152,306.684)"><ellipse cx="460.739" cy="334.883" rx="37.683" ry="37.34" style="fill:none;stroke:#5ba3a3;stroke-width:20.85px;"/></g>
            <g transform="matrix(0.27855,0,0,0.27855,224.521,389.864)"><ellipse cx="460.739" cy="334.883" rx="37.683" ry="37.34" style="fill:none;stroke:#5ba3a3;stroke-width:35.9px;"/></g>
            <g transform="matrix(0.310029,0,0,0.310029,158.808,342.24)"><ellipse cx="460.739" cy="334.883" rx="37.683" ry="37.34" style="fill:none;stroke:#5ba3a3;stroke-width:32.26px;"/></g>
            <g transform="matrix(0.467077,0,0,0.467077,79.8698,205.341)"><ellipse cx="460.739" cy="334.883" rx="37.683" ry="37.34" style="fill:none;stroke:#5ba3a3;stroke-width:21.41px;"/></g>
            <g transform="matrix(0.442831,0,0,0.442831,124.447,147.692)"><ellipse cx="460.739" cy="334.883" rx="37.683" ry="37.34" style="fill:none;stroke:#5ba3a3;stroke-width:22.58px;"/></g>
            <g transform="matrix(0.388082,0,0,0.388082,29.6768,177.963)"><ellipse cx="460.739" cy="334.883" rx="37.683" ry="37.34" style="fill:none;stroke:#5ba3a3;stroke-width:25.77px;"/></g>
            <g transform="matrix(0.330301,0,0,0.330301,66.2146,268.307)"><ellipse cx="460.739" cy="334.883" rx="37.683" ry="37.34" style="fill:none;stroke:#5ba3a3;stroke-width:30.28px;"/></g>
            <g transform="matrix(0.44835,0,0,0.44835,92.628,80.5432)"><ellipse cx="460.739" cy="334.883" rx="37.683" ry="37.34" style="fill:none;stroke:#5ba3a3;stroke-width:22.3px;"/></g>
            <g transform="matrix(0.380386,0,0,0.380386,279.868,134.943)"><ellipse cx="460.739" cy="334.883" rx="37.683" ry="37.34" style="fill:none;stroke:#5ba3a3;stroke-width:26.29px;"/></g>
            <g transform="matrix(0.337113,0,0,0.337113,303.475,94.92)"><ellipse cx="460.739" cy="334.883" rx="37.683" ry="37.34" style="fill:none;stroke:#5ba3a3;stroke-width:29.66px;"/></g>
            <g transform="matrix(0.319178,0,0,0.319178,233.643,98.7116)"><ellipse cx="460.739" cy="334.883" rx="37.683" ry="37.34" style="fill:none;stroke:#5ba3a3;stroke-width:31.33px;"/></g>
            <g transform="matrix(0.30998,0,0,0.30998,351.607,403.857)"><ellipse cx="460.739" cy="334.883" rx="37.683" ry="37.34" style="fill:none;stroke:#5ba3a3;stroke-width:32.26px;"/></g>
            <g transform="matrix(0.283182,0,0,0.283182,442.456,388.115)"><ellipse cx="460.739" cy="334.883" rx="37.683" ry="37.34" style="fill:none;stroke:#5ba3a3;stroke-width:35.31px;"/></g>
            <g transform="matrix(0.283167,0,0,0.283167,372.382,465.01)"><ellipse cx="460.739" cy="334.883" rx="37.683" ry="37.34" style="fill:none;stroke:#5ba3a3;stroke-width:35.31px;"/></g>
            <g transform="matrix(0.326066,0,0,0.326066,315.066,488.102)"><ellipse cx="460.739" cy="334.883" rx="37.683" ry="37.34" style="fill:none;stroke:#5ba3a3;stroke-width:30.67px;"/></g>
        </g>
    </g>
</svg>
